REM DIRINDEX 1\2,1\3,1\4,1\6,1\5\7,1\5\8
REM DIRNAME folder01,folder02,folder03,folder04,folder05,folder06,folder07,folder08
TITLE ""
FILE "DB4500_5th_5C_14.mp3" MP3
  TRACK 01 AUDIO
    TITLE "0:"
    INDEX 01 00:00:00
  TRACK 02 AUDIO
    TITLE "2:cjc114_3684"
    INDEX 01 00:00:07
  TRACK 03 AUDIO
    TITLE "0:"
    INDEX 01 00:01:21
  TRACK 04 AUDIO
    TITLE "3:cjc114_3685"
    INDEX 01 00:01:36
  TRACK 05 AUDIO
    TITLE "0:"
    INDEX 01 00:03:29
  TRACK 06 AUDIO
    TITLE "4:cjc114_3686"
    INDEX 01 00:03:43
  TRACK 07 AUDIO
    TITLE "0:"
    INDEX 01 00:06:08
  TRACK 08 AUDIO
    TITLE "2:cjc114_3687"
    INDEX 01 00:06:43
  TRACK 09 AUDIO
    TITLE "0:"
    INDEX 01 00:07:51
  TRACK 10 AUDIO
    TITLE "3:cjc114_3688"
    INDEX 01 00:07:64
  TRACK 11 AUDIO
    TITLE "0:"
    INDEX 01 00:09:18
  TRACK 12 AUDIO
    TITLE "4:cjc114_3689"
    INDEX 01 00:09:34
  TRACK 13 AUDIO
    TITLE "0:"
    INDEX 01 00:12:12
  TRACK 14 AUDIO
    TITLE "2:cjc114_3690"
    INDEX 01 00:12:50
  TRACK 15 AUDIO
    TITLE "0:"
    INDEX 01 00:13:57
  TRACK 16 AUDIO
    TITLE "3:cjc114_3691"
    INDEX 01 00:13:71
  TRACK 17 AUDIO
    TITLE "0:"
    INDEX 01 00:15:28
  TRACK 18 AUDIO
    TITLE "4:cjc114_3692"
    INDEX 01 00:15:42
  TRACK 19 AUDIO
    TITLE "0:"
    INDEX 01 00:18:39
  TRACK 20 AUDIO
    TITLE "2:cjc114_3693"
    INDEX 01 00:19:01
  TRACK 21 AUDIO
    TITLE "0:"
    INDEX 01 00:20:24
  TRACK 22 AUDIO
    TITLE "3:cjc114_3694"
    INDEX 01 00:20:39
  TRACK 23 AUDIO
    TITLE "0:"
    INDEX 01 00:21:58
  TRACK 24 AUDIO
    TITLE "4:cjc114_3695"
    INDEX 01 00:21:68
  TRACK 25 AUDIO
    TITLE "0:"
    INDEX 01 00:25:11
  TRACK 26 AUDIO
    TITLE "2:cjc114_3696"
    INDEX 01 00:25:48
  TRACK 27 AUDIO
    TITLE "0:"
    INDEX 01 00:27:02
  TRACK 28 AUDIO
    TITLE "3:cjc114_3697"
    INDEX 01 00:27:16
  TRACK 29 AUDIO
    TITLE "0:"
    INDEX 01 00:28:06
  TRACK 30 AUDIO
    TITLE "4:cjc114_3698"
    INDEX 01 00:28:19
  TRACK 31 AUDIO
    TITLE "0:"
    INDEX 01 00:32:27
  TRACK 32 AUDIO
    TITLE "2:cjc114_3699"
    INDEX 01 00:32:64
  TRACK 33 AUDIO
    TITLE "0:"
    INDEX 01 00:34:18
  TRACK 34 AUDIO
    TITLE "3:cjc114_3700"
    INDEX 01 00:34:34
  TRACK 35 AUDIO
    TITLE "0:"
    INDEX 01 00:35:41
  TRACK 36 AUDIO
    TITLE "4:cjc114_3701"
    INDEX 01 00:35:53
  TRACK 37 AUDIO
    TITLE "0:"
    INDEX 01 00:39:35
  TRACK 38 AUDIO
    TITLE "2:cjc114_3702"
    INDEX 01 00:39:72
  TRACK 39 AUDIO
    TITLE "0:"
    INDEX 01 00:41:08
  TRACK 40 AUDIO
    TITLE "3:cjc114_3703"
    INDEX 01 00:41:24
  TRACK 41 AUDIO
    TITLE "0:"
    INDEX 01 00:42:25
  TRACK 42 AUDIO
    TITLE "4:cjc114_3704"
    INDEX 01 00:42:41
  TRACK 43 AUDIO
    TITLE "0:"
    INDEX 01 00:46:15
  TRACK 44 AUDIO
    TITLE "2:cjc114_3705"
    INDEX 01 00:46:53
  TRACK 45 AUDIO
    TITLE "0:"
    INDEX 01 00:47:66
  TRACK 46 AUDIO
    TITLE "3:cjc114_3706"
    INDEX 01 00:48:04
  TRACK 47 AUDIO
    TITLE "0:"
    INDEX 01 00:49:18
  TRACK 48 AUDIO
    TITLE "4:cjc114_3707"
    INDEX 01 00:49:31
  TRACK 49 AUDIO
    TITLE "0:"
    INDEX 01 00:52:41
  TRACK 50 AUDIO
    TITLE "2:cjc114_3708"
    INDEX 01 00:53:04
  TRACK 51 AUDIO
    TITLE "0:"
    INDEX 01 00:54:17
  TRACK 52 AUDIO
    TITLE "3:cjc114_3709"
    INDEX 01 00:54:30
  TRACK 53 AUDIO
    TITLE "0:"
    INDEX 01 00:55:36
  TRACK 54 AUDIO
    TITLE "4:cjc114_3710"
    INDEX 01 00:55:50
  TRACK 55 AUDIO
    TITLE "0:"
    INDEX 01 00:58:58
  TRACK 56 AUDIO
    TITLE "2:cjc114_3711"
    INDEX 01 00:59:22
  TRACK 57 AUDIO
    TITLE "0:"
    INDEX 01 01:00:43
  TRACK 58 AUDIO
    TITLE "3:cjc114_3712"
    INDEX 01 01:00:59
  TRACK 59 AUDIO
    TITLE "0:"
    INDEX 01 01:01:74
  TRACK 60 AUDIO
    TITLE "4:cjc114_3713"
    INDEX 01 01:02:14
  TRACK 61 AUDIO
    TITLE "0:"
    INDEX 01 01:05:36
  TRACK 62 AUDIO
    TITLE "2:cjc114_3714"
    INDEX 01 01:05:73
  TRACK 63 AUDIO
    TITLE "0:"
    INDEX 01 01:07:12
  TRACK 64 AUDIO
    TITLE "3:cjc114_3715"
    INDEX 01 01:07:25
  TRACK 65 AUDIO
    TITLE "0:"
    INDEX 01 01:08:15
  TRACK 66 AUDIO
    TITLE "4:cjc114_3716"
    INDEX 01 01:08:31
  TRACK 67 AUDIO
    TITLE "0:"
    INDEX 01 01:11:41
  TRACK 68 AUDIO
    TITLE "2:cjc114_3717"
    INDEX 01 01:12:07
  TRACK 69 AUDIO
    TITLE "0:"
    INDEX 01 01:13:20
  TRACK 70 AUDIO
    TITLE "3:cjc114_3718"
    INDEX 01 01:13:32
  TRACK 71 AUDIO
    TITLE "0:"
    INDEX 01 01:14:45
  TRACK 72 AUDIO
    TITLE "4:cjc114_3719"
    INDEX 01 01:14:59
  TRACK 73 AUDIO
    TITLE "0:"
    INDEX 01 01:17:67
